<svg
          xmlns="http://www.w3.org/2000/svg"
          width="18"
          height="18"
          viewBox="0 0 18 18"
          fill="none"
        >
          <path
            fill-rule="evenodd"
            clip-rule="evenodd"
            d="M6.87884 2.63656C7.26908 2.2455 7.26908 1.61248 6.87884 1.2218C6.48836 0.83188 5.85486 0.83188 5.46438 1.2218L1.222 5.46494C0.83152 5.85484 0.83152 6.48864 1.222 6.87892C1.61248 7.2696 2.24546 7.2696 2.63596 6.87892L6.87884 2.63656ZM15.3639 2.63656C15.7549 3.02646 15.7549 3.66026 15.3639 4.05016L4.05042 15.3644C3.65994 15.7547 3.02644 15.7547 2.63596 15.3644C2.24546 14.9738 2.24546 14.3407 2.63596 13.9501L13.9499 2.63656C14.3404 2.2455 14.9734 2.2455 15.3639 2.63656ZM16.7781 11.1217C17.1686 11.512 17.1686 12.1454 16.7781 12.5361L12.5354 16.7784C12.145 17.1687 11.512 17.1687 11.1215 16.7784C10.731 16.3874 10.731 15.7547 11.1215 15.3644L15.3639 11.1217C15.7549 10.7306 16.3876 10.7306 16.7781 11.1217Z"
            fill="white"
            fill-opacity="0.6"
          />
        </svg>