<svg xmlns="http://www.w3.org/2000/svg" width="22" height="22" viewBox="0 0 22 22" fill="none">
  <path fill-rule="evenodd" clip-rule="evenodd" d="M11.0001 4.99487e-05C17.0751 4.99487e-05 22.0001 4.92512 22.0001 10.9999C22.0001 17.0755 17.0751 22.0002 11.0001 22.0002C4.925 22.0002 4.99487e-05 17.0755 4.99487e-05 10.9999C4.99487e-05 4.92512 4.925 4.99487e-05 11.0001 4.99487e-05ZM11.0001 2.0617C15.9348 2.0617 19.9352 6.06365 19.9352 10.9999C19.9352 15.9366 15.9348 19.9389 11.0001 19.9389C6.0651 19.9389 2.06472 15.9366 2.06472 10.9999C2.06472 6.06365 6.0651 2.0617 11.0001 2.0617ZM14.0947 11.3582C14.3438 11.6772 14.469 12.0934 14.469 12.6062C14.469 13.2662 14.247 13.7994 13.8028 14.2059C13.3587 14.6131 12.7734 14.8674 12.0469 14.9703V16.5973H10.5829V14.9595C10.0616 14.8786 9.5607 14.7356 9.0803 14.5307C8.59912 14.3253 8.17575 14.0687 7.80865 13.7609L8.5904 12.1885C8.97907 12.5333 9.4397 12.8154 9.97198 13.0354C10.5037 13.255 10.9752 13.3652 11.3862 13.3652C11.6873 13.3652 11.9239 13.3105 12.0962 13.1999C12.2689 13.0905 12.3549 12.929 12.3549 12.7163C12.3549 12.5403 12.2907 12.3939 12.1625 12.2767C12.0341 12.1596 11.8725 12.0664 11.6783 11.9963C11.4836 11.9265 11.2102 11.8444 10.858 11.7485C10.3296 11.6025 9.8931 11.4538 9.5481 11.3039C9.20258 11.1532 8.90765 10.926 8.66208 10.622C8.41545 10.318 8.29317 9.91265 8.29317 9.40715C8.29317 8.79108 8.49687 8.2798 8.9038 7.87372C9.31125 7.46647 9.8705 7.20795 10.5829 7.09815V5.53697H12.0469V7.0758C12.4875 7.12743 12.9168 7.22452 13.3348 7.36745C13.7532 7.5104 14.1275 7.688 14.4579 7.9007L13.698 9.50618C13.2872 9.26383 12.8487 9.06618 12.3827 8.91205C11.9164 8.75833 11.526 8.68165 11.2102 8.68165C10.9608 8.68165 10.7645 8.72675 10.6217 8.81882C10.4781 8.91052 10.4064 9.0442 10.4064 9.2199C10.4064 9.38865 10.4693 9.53005 10.5939 9.64332C10.7183 9.757 10.8729 9.84908 11.0566 9.91803C11.2397 9.98777 11.511 10.0775 11.8709 10.1877C12.4063 10.3415 12.8487 10.4952 13.1973 10.6493C13.5456 10.8034 13.845 11.0396 14.0947 11.3582Z" fill="#AAAAAA"/>
</svg>