<svg xmlns="http://www.w3.org/2000/svg" width="161" height="153" viewBox="0 0 161 153" fill="none">
  <path fill-rule="evenodd" clip-rule="evenodd" d="M20.6099 130.606C20.6099 130.107 20.5529 129.653 20.4407 129.244C20.3274 128.835 20.4966 128.631 20.9488 128.631C21.5811 128.631 21.8976 129.38 21.8976 130.879C21.8976 133.15 20.7793 135.272 18.5429 137.247C16.3067 139.223 13.7421 140.21 10.8509 140.21C8.99828 140.21 7.21392 139.757 5.49753 138.848C1.83785 136.85 0.00817871 133.376 0.00817871 128.426C0.00817871 124.93 0.956839 121.502 2.85432 118.141C5.47422 113.555 9.23545 109.923 14.138 107.243C19.0399 104.564 23.8173 103.224 28.4712 103.224C31.8597 103.224 34.6383 103.974 36.8071 105.472C39.2465 107.153 40.4662 109.65 40.4662 112.964C40.4662 117.187 38.4335 123.807 34.3669 132.82C30.3011 141.834 28.268 146.931 28.268 148.111C28.268 148.474 28.3801 148.588 28.6069 148.452C29.7811 147.68 35.1687 141.516 44.7698 129.959C54.3697 118.403 61.0448 111.262 64.7956 108.537C68.1386 106.04 70.9287 104.167 73.1652 102.918C75.4015 101.67 77.6941 101.045 80.0436 101.045C80.6759 101.045 81.1504 101.068 81.4668 101.113C82.6865 101.205 83.2964 101.839 83.2964 103.02C83.2964 103.61 83.0932 103.905 82.6865 103.905C82.6412 103.905 82.3246 103.803 81.7378 103.599C81.1504 103.395 80.6536 103.292 80.2469 103.292C73.921 103.292 65.4054 109.037 54.6979 120.525C50.6762 124.84 45.7862 130.652 40.026 137.962C34.2656 145.274 30.8652 149.223 29.8266 149.814C26.1671 151.902 24.1107 152.948 23.6596 152.948C23.5242 152.948 23.4564 152.719 23.4564 152.266C23.4564 150.768 24.7206 146.953 27.2512 140.823C28.2901 138.462 29.8033 134.921 31.7919 130.197L34.9092 121.002C35.9937 117.914 36.5357 115.667 36.5357 114.258C36.5357 111.125 35.6315 108.742 33.825 107.107C32.0175 105.472 29.4199 104.654 26.0315 104.654C22.643 104.654 19.006 105.858 15.1206 108.265C10.9187 110.989 7.77823 114.35 5.70079 118.346C3.62221 122.342 2.58325 125.725 2.58325 128.494C2.58325 131.265 3.14772 133.444 4.27747 135.033C6.12948 137.622 8.5916 138.916 11.6643 138.916C14.0131 138.916 16.0917 138.133 17.8992 136.566C19.7058 135 20.6099 133.013 20.6099 130.606ZM59.5087 122.228C59.5087 120.957 60.3664 120.321 62.084 120.321C62.7616 120.321 63.4056 120.537 64.0153 120.968C64.6253 121.4 64.9303 121.911 64.9303 122.5C64.9303 123.091 64.6476 123.602 64.083 124.033C63.5177 124.465 62.8972 124.68 62.2194 124.68C61.5417 124.68 60.92 124.431 60.3558 123.931C59.7902 123.432 59.5087 122.865 59.5087 122.228ZM53.2062 148.247C53.7926 147.975 54.3126 147.737 54.7648 147.532C55.216 147.328 55.7359 146.999 56.3234 146.545C56.9102 146.091 57.3623 145.751 57.6787 145.523C57.9944 145.296 58.4582 144.899 59.0683 144.331C59.6782 143.764 60.0954 143.377 60.3219 143.173C60.5422 142.973 60.9463 142.569 61.5331 141.957C61.4032 142.523 61.3382 143.053 61.3382 143.547C61.3382 144.593 61.6093 145.547 62.1516 146.409C62.8294 147.634 63.7547 148.247 64.9303 148.247H66.0142C68.5441 148.247 71.5939 146.046 75.1634 141.64C78.1897 137.918 79.7038 135.261 79.7038 133.671C79.7038 133.444 79.6805 133.24 79.636 133.058C83.16 131.605 84.9442 130.493 84.9899 129.721C83.3178 130.583 82.0757 131.015 81.2625 131.015C80.4493 131.015 80.0195 130.947 79.9748 130.811C80.2003 129.812 80.3139 128.994 80.3139 128.358C80.3139 125.906 79.1618 124.68 76.8576 124.68C74.4178 124.68 71.2211 127.144 67.2682 132.07C64.9981 134.899 63.38 137.365 62.4135 139.468C60.3365 141.784 57.6971 143.939 54.4939 145.932C52.8675 146.977 51.5796 147.499 50.6308 147.499C49.501 147.499 48.9365 146.67 48.9365 145.012C48.9365 143.355 50.6308 140.324 54.0195 135.919C54.606 135.147 55.216 134.341 55.8492 133.501C56.4813 132.661 56.978 132.014 57.3402 131.56C57.7012 131.106 58.0399 130.686 58.3568 130.299C58.6722 129.914 58.9433 129.562 59.1698 129.244C59.1698 128.881 58.8872 128.517 58.3229 128.154C57.7571 127.791 57.2491 127.609 56.7979 127.609C55.1715 127.655 53.0251 129.846 50.3599 134.182C47.6935 138.519 46.3615 141.913 46.3615 144.365C46.3615 147.362 47.5137 148.86 49.8177 148.86C51.1274 148.86 52.2575 148.656 53.2062 148.247ZM73.5367 140.891C70.5549 144.433 68.0918 146.204 66.15 146.204C65.0656 146.204 64.5236 145.342 64.5236 143.616C64.5236 141.891 65.9348 139.212 68.7593 135.578C71.582 131.946 73.7623 130.13 75.2987 130.13C76.3831 131.81 77.2863 132.854 78.0095 133.262C78.0095 134.806 76.5187 137.349 73.5367 140.891ZM86.3785 136.464C85.813 137.327 85.3957 137.996 85.1248 138.473C84.8538 138.95 84.537 139.574 84.1758 140.346C83.4071 141.891 83.0239 143.343 83.0239 144.706C83.0239 146.068 83.7691 146.749 85.2604 146.749C86.7512 146.749 88.6711 145.955 91.0205 144.365C92.0923 143.64 93.15 142.797 94.1938 141.835C94.85 139.155 96.7518 136.161 99.8982 132.854C103.873 128.676 107.443 126.587 110.606 126.587C111.644 126.587 112.492 126.871 113.147 127.439C113.802 128.007 114.13 128.699 114.13 129.516C114.13 132.06 112.221 134.489 108.403 136.805C104.585 139.12 101.479 140.278 99.085 140.278C98.7228 140.278 98.4074 140.234 98.136 140.142C97.4585 141.368 97.1198 142.662 97.1198 144.024C97.1198 146.386 98.2378 147.567 100.474 147.567C102.711 147.567 105.613 146.046 109.183 143.003C110.815 141.685 112.306 140.318 113.653 138.904C113.99 138.071 114.397 137.178 114.874 136.225C116.501 132.979 117.743 130.561 118.602 128.971C117.968 129.107 117.426 129.176 116.975 129.176C115.664 129.176 115.01 128.654 115.01 127.609C115.01 126.837 115.552 126.292 116.636 125.974C116.772 125.974 116.975 125.952 117.247 125.906H121.177C121.99 124.862 122.916 123.659 123.956 122.296C125.22 120.662 126.079 119.844 126.531 119.844C126.982 119.844 127.547 120.026 128.225 120.389C128.903 120.753 129.242 121.184 129.242 121.683C129.242 122.183 128.157 123.659 125.988 126.111C127.163 126.156 128.699 126.179 130.597 126.179L135.696 126.108C135.817 126.059 135.947 126.015 136.086 125.974C136.222 125.974 136.425 125.952 136.696 125.906H140.627C141.44 124.862 142.365 123.659 143.405 122.296C144.669 120.662 145.528 119.844 145.98 119.844C146.431 119.844 146.997 120.026 147.675 120.389C148.352 120.753 148.691 121.184 148.691 121.683C148.691 122.183 147.607 123.659 145.438 126.111C146.613 126.156 148.149 126.179 150.047 126.179L159.805 126.042C159.941 126.134 160.008 126.202 160.008 126.247C160.008 126.655 157.196 127.224 151.571 127.95C145.946 128.676 142.907 129.107 142.456 129.244C141.598 130.016 140.017 132.321 137.712 136.157C135.408 139.995 134.256 142.798 134.256 144.57C134.256 146.25 135.408 147.09 137.712 147.09C138.797 147.09 140.22 146.749 141.982 146.068C143.744 145.387 145.099 144.751 146.048 144.161C148.578 142.572 151.289 140.234 154.18 137.145C154.813 136.51 155.241 136.191 155.468 136.191C155.604 136.191 155.671 136.328 155.671 136.6C155.671 136.872 155.332 137.418 154.655 138.235C152.305 141.141 149.662 143.479 146.726 145.251C143.202 147.43 139.836 148.52 136.628 148.52C135.227 148.52 134.087 148.214 133.206 147.601C132.325 146.987 131.884 145.751 131.884 143.888C131.884 143.178 132.003 142.367 132.24 141.455C130.69 142.924 129.036 144.189 127.276 145.251C123.752 147.43 120.386 148.52 117.179 148.52C115.778 148.52 114.637 148.214 113.756 147.601C112.875 146.987 112.435 145.751 112.435 143.888C112.435 143.22 112.54 142.462 112.75 141.614C111.392 142.902 109.932 144.114 108.369 145.251C104.935 147.748 102.021 148.997 99.6271 148.997C99.1295 148.997 98.6784 148.929 98.2718 148.792C95.3811 147.975 93.9345 146.34 93.9345 143.888C93.9345 143.834 93.9351 143.78 93.9362 143.725C90.6843 146.741 87.8826 148.247 85.5312 148.247C84.0404 148.247 82.775 147.896 81.7364 147.192C80.6964 146.488 80.1778 145.398 80.1778 143.922C80.1778 142.447 80.561 140.733 81.3297 138.78C82.6396 135.692 84.7405 131.81 87.6321 127.132C92.9182 118.505 96.6678 114.191 98.8819 114.191C99.3329 114.191 99.7969 114.361 100.271 114.701C100.746 115.042 101.005 115.417 101.051 115.825C100.011 117.233 98.0114 119.935 95.053 123.931C92.0934 127.927 90.0487 130.799 88.9196 132.547C87.7899 134.296 86.9428 135.602 86.3785 136.464ZM133.158 138.769C133.484 137.975 133.872 137.127 134.324 136.225C135.95 132.979 137.192 130.561 138.051 128.971C137.418 129.107 136.876 129.176 136.425 129.176C135.125 129.176 134.47 128.662 134.46 127.634C133.743 127.736 132.964 127.841 132.122 127.95C126.497 128.676 123.458 129.107 123.007 129.244C122.148 130.016 120.567 132.321 118.263 136.157C115.959 139.995 114.806 142.798 114.806 144.57C114.806 146.25 115.959 147.09 118.263 147.09C119.347 147.09 120.77 146.749 122.532 146.068C124.294 145.387 125.65 144.751 126.599 144.161C128.664 142.863 130.85 141.066 133.158 138.769ZM100.034 138.78C101.75 138.78 104.043 137.86 106.912 136.021C109.781 134.182 111.577 132.173 112.3 129.993C112.39 129.766 112.436 129.562 112.436 129.38C112.436 128.835 111.859 128.563 110.708 128.563C109.555 128.563 107.917 129.448 105.794 131.219C102.948 133.581 100.734 136.055 99.1528 138.643C99.4237 138.735 99.7171 138.78 100.034 138.78Z" fill="#EEEEEE"/>
  <path fill-rule="evenodd" clip-rule="evenodd" d="M20.6099 130.606C20.6099 130.107 20.5529 129.653 20.4407 129.244C20.3274 128.835 20.4966 128.631 20.9488 128.631C21.5811 128.631 21.8976 129.38 21.8976 130.879C21.8976 133.15 20.7793 135.272 18.5429 137.247C16.3067 139.223 13.7421 140.21 10.8509 140.21C8.99828 140.21 7.21392 139.757 5.49753 138.848C1.83785 136.85 0.00817871 133.376 0.00817871 128.426C0.00817871 124.93 0.956839 121.502 2.85432 118.141C5.47422 113.555 9.23545 109.923 14.138 107.243C19.0399 104.564 23.8173 103.224 28.4712 103.224C31.8597 103.224 34.6383 103.974 36.8071 105.472C39.2465 107.153 40.4662 109.65 40.4662 112.964C40.4662 117.187 38.4335 123.807 34.3669 132.82C30.3011 141.834 28.268 146.931 28.268 148.111C28.268 148.474 28.3801 148.588 28.6069 148.452C29.7811 147.68 35.1687 141.516 44.7698 129.959C54.3697 118.403 61.0448 111.262 64.7956 108.537C68.1386 106.04 70.9287 104.167 73.1652 102.918C75.4015 101.67 77.6941 101.045 80.0436 101.045C80.6759 101.045 81.1504 101.068 81.4668 101.113C82.6865 101.205 83.2964 101.839 83.2964 103.02C83.2964 103.61 83.0932 103.905 82.6865 103.905C82.6412 103.905 82.3246 103.803 81.7378 103.599C81.1504 103.395 80.6536 103.292 80.2469 103.292C73.921 103.292 65.4054 109.037 54.6979 120.525C50.6762 124.84 45.7862 130.652 40.026 137.962C34.2656 145.274 30.8652 149.223 29.8266 149.814C26.1671 151.902 24.1107 152.948 23.6596 152.948C23.5242 152.948 23.4564 152.719 23.4564 152.266C23.4564 150.768 24.7206 146.953 27.2512 140.823C28.2901 138.462 29.8033 134.921 31.7919 130.197L34.9092 121.002C35.9937 117.914 36.5357 115.667 36.5357 114.258C36.5357 111.125 35.6315 108.742 33.825 107.107C32.0175 105.472 29.4199 104.654 26.0315 104.654C22.643 104.654 19.006 105.858 15.1206 108.265C10.9187 110.989 7.77823 114.35 5.70079 118.346C3.62221 122.342 2.58325 125.725 2.58325 128.494C2.58325 131.265 3.14772 133.444 4.27747 135.033C6.12948 137.622 8.5916 138.916 11.6643 138.916C14.0131 138.916 16.0917 138.133 17.8992 136.566C19.7058 135 20.6099 133.013 20.6099 130.606ZM59.5087 122.228C59.5087 120.957 60.3664 120.321 62.084 120.321C62.7616 120.321 63.4056 120.537 64.0153 120.968C64.6253 121.4 64.9303 121.911 64.9303 122.5C64.9303 123.091 64.6476 123.602 64.083 124.033C63.5177 124.465 62.8972 124.68 62.2194 124.68C61.5417 124.68 60.92 124.431 60.3558 123.931C59.7902 123.432 59.5087 122.865 59.5087 122.228ZM53.2062 148.247C53.7926 147.975 54.3126 147.737 54.7648 147.532C55.216 147.328 55.7359 146.999 56.3234 146.545C56.9102 146.091 57.3623 145.751 57.6787 145.523C57.9944 145.296 58.4582 144.899 59.0683 144.331C59.6782 143.764 60.0954 143.377 60.3219 143.173C60.5422 142.973 60.9463 142.569 61.5331 141.957C61.4032 142.523 61.3382 143.053 61.3382 143.547C61.3382 144.593 61.6093 145.547 62.1516 146.409C62.8294 147.634 63.7547 148.247 64.9303 148.247H66.0142C68.5441 148.247 71.5939 146.046 75.1634 141.64C78.1897 137.918 79.7038 135.261 79.7038 133.671C79.7038 133.444 79.6805 133.24 79.636 133.058C83.16 131.605 84.9442 130.493 84.9899 129.721C83.3178 130.583 82.0757 131.015 81.2625 131.015C80.4493 131.015 80.0195 130.947 79.9748 130.811C80.2003 129.812 80.3139 128.994 80.3139 128.358C80.3139 125.906 79.1618 124.68 76.8576 124.68C74.4178 124.68 71.2211 127.144 67.2682 132.07C64.9981 134.899 63.38 137.365 62.4135 139.468C60.3365 141.784 57.6971 143.939 54.4939 145.932C52.8675 146.977 51.5796 147.499 50.6308 147.499C49.501 147.499 48.9365 146.67 48.9365 145.012C48.9365 143.355 50.6308 140.324 54.0195 135.919C54.606 135.147 55.216 134.341 55.8492 133.501C56.4813 132.661 56.978 132.014 57.3402 131.56C57.7012 131.106 58.0399 130.686 58.3568 130.299C58.6722 129.914 58.9433 129.562 59.1698 129.244C59.1698 128.881 58.8872 128.517 58.3229 128.154C57.7571 127.791 57.2491 127.609 56.7979 127.609C55.1715 127.655 53.0251 129.846 50.3599 134.182C47.6935 138.519 46.3615 141.913 46.3615 144.365C46.3615 147.362 47.5137 148.86 49.8177 148.86C51.1274 148.86 52.2575 148.656 53.2062 148.247ZM73.5367 140.891C70.5549 144.433 68.0918 146.204 66.15 146.204C65.0656 146.204 64.5236 145.342 64.5236 143.616C64.5236 141.891 65.9348 139.212 68.7593 135.578C71.582 131.946 73.7623 130.13 75.2987 130.13C76.3831 131.81 77.2863 132.854 78.0095 133.262C78.0095 134.806 76.5187 137.349 73.5367 140.891ZM86.3785 136.464C85.813 137.327 85.3957 137.996 85.1248 138.473C84.8538 138.95 84.537 139.574 84.1758 140.346C83.4071 141.891 83.0239 143.343 83.0239 144.706C83.0239 146.068 83.7691 146.749 85.2604 146.749C86.7512 146.749 88.6711 145.955 91.0205 144.365C92.0923 143.64 93.15 142.797 94.1938 141.835C94.85 139.155 96.7518 136.161 99.8982 132.854C103.873 128.676 107.443 126.587 110.606 126.587C111.644 126.587 112.492 126.871 113.147 127.439C113.802 128.007 114.13 128.699 114.13 129.516C114.13 132.06 112.221 134.489 108.403 136.805C104.585 139.12 101.479 140.278 99.085 140.278C98.7228 140.278 98.4074 140.234 98.136 140.142C97.4585 141.368 97.1198 142.662 97.1198 144.024C97.1198 146.386 98.2378 147.567 100.474 147.567C102.711 147.567 105.613 146.046 109.183 143.003C110.815 141.685 112.306 140.318 113.653 138.904C113.99 138.071 114.397 137.178 114.874 136.225C116.501 132.979 117.743 130.561 118.602 128.971C117.968 129.107 117.426 129.176 116.975 129.176C115.664 129.176 115.01 128.654 115.01 127.609C115.01 126.837 115.552 126.292 116.636 125.974C116.772 125.974 116.975 125.952 117.247 125.906H121.177C121.99 124.862 122.916 123.659 123.956 122.296C125.22 120.662 126.079 119.844 126.531 119.844C126.982 119.844 127.547 120.026 128.225 120.389C128.903 120.753 129.242 121.184 129.242 121.683C129.242 122.183 128.157 123.659 125.988 126.111C127.163 126.156 128.699 126.179 130.597 126.179L135.696 126.108C135.817 126.059 135.947 126.015 136.086 125.974C136.222 125.974 136.425 125.952 136.696 125.906H140.627C141.44 124.862 142.365 123.659 143.405 122.296C144.669 120.662 145.528 119.844 145.98 119.844C146.431 119.844 146.997 120.026 147.675 120.389C148.352 120.753 148.691 121.184 148.691 121.683C148.691 122.183 147.607 123.659 145.438 126.111C146.613 126.156 148.149 126.179 150.047 126.179L159.805 126.042C159.941 126.134 160.008 126.202 160.008 126.247C160.008 126.655 157.196 127.224 151.571 127.95C145.946 128.676 142.907 129.107 142.456 129.244C141.598 130.016 140.017 132.321 137.712 136.157C135.408 139.995 134.256 142.798 134.256 144.57C134.256 146.25 135.408 147.09 137.712 147.09C138.797 147.09 140.22 146.749 141.982 146.068C143.744 145.387 145.099 144.751 146.048 144.161C148.578 142.572 151.289 140.234 154.18 137.145C154.813 136.51 155.241 136.191 155.468 136.191C155.604 136.191 155.671 136.328 155.671 136.6C155.671 136.872 155.332 137.418 154.655 138.235C152.305 141.141 149.662 143.479 146.726 145.251C143.202 147.43 139.836 148.52 136.628 148.52C135.227 148.52 134.087 148.214 133.206 147.601C132.325 146.987 131.884 145.751 131.884 143.888C131.884 143.178 132.003 142.367 132.24 141.455C130.69 142.924 129.036 144.189 127.276 145.251C123.752 147.43 120.386 148.52 117.179 148.52C115.778 148.52 114.637 148.214 113.756 147.601C112.875 146.987 112.435 145.751 112.435 143.888C112.435 143.22 112.54 142.462 112.75 141.614C111.392 142.902 109.932 144.114 108.369 145.251C104.935 147.748 102.021 148.997 99.6271 148.997C99.1295 148.997 98.6784 148.929 98.2718 148.792C95.3811 147.975 93.9345 146.34 93.9345 143.888C93.9345 143.834 93.9351 143.78 93.9362 143.725C90.6843 146.741 87.8826 148.247 85.5312 148.247C84.0404 148.247 82.775 147.896 81.7364 147.192C80.6964 146.488 80.1778 145.398 80.1778 143.922C80.1778 142.447 80.561 140.733 81.3297 138.78C82.6396 135.692 84.7405 131.81 87.6321 127.132C92.9182 118.505 96.6678 114.191 98.8819 114.191C99.3329 114.191 99.7969 114.361 100.271 114.701C100.746 115.042 101.005 115.417 101.051 115.825C100.011 117.233 98.0114 119.935 95.053 123.931C92.0934 127.927 90.0487 130.799 88.9196 132.547C87.7899 134.296 86.9428 135.602 86.3785 136.464ZM133.158 138.769C133.484 137.975 133.872 137.127 134.324 136.225C135.95 132.979 137.192 130.561 138.051 128.971C137.418 129.107 136.876 129.176 136.425 129.176C135.125 129.176 134.47 128.662 134.46 127.634C133.743 127.736 132.964 127.841 132.122 127.95C126.497 128.676 123.458 129.107 123.007 129.244C122.148 130.016 120.567 132.321 118.263 136.157C115.959 139.995 114.806 142.798 114.806 144.57C114.806 146.25 115.959 147.09 118.263 147.09C119.347 147.09 120.77 146.749 122.532 146.068C124.294 145.387 125.65 144.751 126.599 144.161C128.664 142.863 130.85 141.066 133.158 138.769ZM100.034 138.78C101.75 138.78 104.043 137.86 106.912 136.021C109.781 134.182 111.577 132.173 112.3 129.993C112.39 129.766 112.436 129.562 112.436 129.38C112.436 128.835 111.859 128.563 110.708 128.563C109.555 128.563 107.917 129.448 105.794 131.219C102.948 133.581 100.734 136.055 99.1528 138.643C99.4237 138.735 99.7171 138.78 100.034 138.78Z" fill="url(#paint0_linear_0_3705)"/>
  <g filter="url(#filter0_d_0_3705)">
    <path fill-rule="evenodd" clip-rule="evenodd" d="M68 1.00022H97.9999C114.568 1.00022 128 14.4316 128 31.0001V60.9998C128 77.5686 114.568 91.0004 97.9999 91.0004H68C51.4316 91.0004 38 77.5686 38 60.9998V31.0001C38 14.4316 51.4316 1.00022 68 1.00022Z" fill="#EEEEEE"/>
    <path fill-rule="evenodd" clip-rule="evenodd" d="M68 1.00022H97.9999C114.568 1.00022 128 14.4316 128 31.0001V60.9998C128 77.5686 114.568 91.0004 97.9999 91.0004H68C51.4316 91.0004 38 77.5686 38 60.9998V31.0001C38 14.4316 51.4316 1.00022 68 1.00022Z" fill="url(#paint1_linear_0_3705)"/>
  </g>
  <defs>
    <filter id="filter0_d_0_3705" x="18.0001" y="1.00021" width="130" height="140" filterUnits="userSpaceOnUse" color-interpolation-filters="sRGB">
      <feFlood flood-opacity="0" result="BackgroundImageFix"/>
      <feColorMatrix in="SourceAlpha" type="matrix" values="0 0 0 0 0 0 0 0 0 0 0 0 0 0 0 0 0 0 127 0" result="hardAlpha"/>
      <feOffset dy="30"/>
      <feGaussianBlur stdDeviation="10"/>
      <feColorMatrix type="matrix" values="0 0 0 0 0 0 0 0 0 0 0 0 0 0 0 0 0 0 0.1 0"/>
      <feBlend mode="normal" in2="BackgroundImageFix" result="effect1_dropShadow_0_3705"/>
      <feBlend mode="normal" in="SourceGraphic" in2="effect1_dropShadow_0_3705" result="shape"/>
    </filter>
    <linearGradient id="paint0_linear_0_3705" x1="152.907" y1="155.251" x2="154.412" y2="102.983" gradientUnits="userSpaceOnUse">
      <stop stop-opacity="0.01"/>
      <stop offset="1" stop-opacity="0.1"/>
    </linearGradient>
    <linearGradient id="paint1_linear_0_3705" x1="82.5054" y1="139" x2="175.489" y2="48.0052" gradientUnits="userSpaceOnUse">
      <stop stop-color="#222222" stop-opacity="0.05"/>
      <stop offset="1" stop-color="#222222" stop-opacity="0.01"/>
    </linearGradient>
  </defs>
</svg>