<svg xmlns="http://www.w3.org/2000/svg" width="3" height="17" viewBox="0 0 3 17" fill="none">
  <path fill-rule="evenodd" clip-rule="evenodd" d="M3.00013 1.5001C3.00013 0.67174 2.3286 -0.000200033 1.49986 -0.000200033C0.671624 -0.000200033 9.799e-05 0.67174 9.799e-05 1.5001C9.799e-05 2.32846 0.671624 3.00038 1.49986 3.00038C2.3286 3.00038 3.00013 2.32846 3.00013 1.5001ZM1.49986 7.00002C2.3286 7.00002 3.00013 7.67158 3.00013 8.50032C3.00013 9.3283 2.3286 10.0002 1.49986 10.0002C0.671624 10.0002 9.799e-05 9.3283 9.799e-05 8.50032C9.799e-05 7.67158 0.671624 7.00002 1.49986 7.00002ZM1.49986 13.9999C2.3286 13.9999 3.00013 14.6718 3.00013 15.5002C3.00013 16.3285 2.3286 16.9997 1.49986 16.9997C0.671624 16.9997 9.799e-05 16.3285 9.799e-05 15.5002C9.799e-05 14.6718 0.671624 13.9999 1.49986 13.9999Z" fill="white" fill-opacity="0.5"/>
</svg>