<svg xmlns="http://www.w3.org/2000/svg" width="20" height="19" viewBox="0 0 20 19" fill="none">
  <path fill-rule="evenodd" clip-rule="evenodd" d="M19.0003 0.000252008H1.0001C0.44752 0.000252008 -7.98702e-06 0.447578 -7.98702e-06 1.00006C-7.98702e-06 1.55218 0.44752 1.99988 1.0001 1.99988H19.0003C19.5524 1.99988 20.0001 1.55218 20.0001 1.00006C20.0001 0.447578 19.5524 0.000252008 19.0003 0.000252008ZM17.0001 5.00008H3.00004C1.34332 5.00008 -7.98702e-06 6.3432 -7.98702e-06 7.99991V16C-7.98702e-06 17.6567 1.34332 19.0002 3.00004 19.0002H17.0001C18.6571 19.0002 20.0001 17.6567 20.0001 16V7.99991C20.0001 6.3432 18.6571 5.00008 17.0001 5.00008ZM3.00004 6.99973H17.0001C17.5522 6.99973 18.0002 7.44743 18.0002 7.99991V16C18.0002 16.5521 17.5522 16.9998 17.0001 16.9998H3.00004C2.4477 16.9998 2.0002 16.5521 2.0002 16V7.99991C2.0002 7.44743 2.4477 6.99973 3.00004 6.99973ZM6.00006 9.00012H5.00022C4.44765 9.00012 4.00012 9.44782 4.00012 9.99993V10.9997C4.00012 11.5526 4.44765 11.9999 5.00022 11.9999H6.00006C6.55214 11.9999 7.00017 11.5526 7.00017 10.9997V9.99993C7.00017 9.44782 6.55214 9.00012 6.00006 9.00012Z" fill="#AAAAAA"/>
</svg>