<svg xmlns="http://www.w3.org/2000/svg" width="56" height="58" viewBox="0 0 56 58" fill="none">
  <g filter="url(#filter0_d_0_3019)">
    <path fill-rule="evenodd" clip-rule="evenodd" d="M28 1.99972C37.9411 1.99972 45.9996 10.0587 45.9996 19.9999C45.9996 29.9414 37.9411 38 28 38C18.0589 38 10 29.9414 10 19.9999C10 10.0587 18.0589 1.99972 28 1.99972Z" fill="#AAAAAA"/>
    <path fill-rule="evenodd" clip-rule="evenodd" d="M28 1.99972C37.9411 1.99972 45.9996 10.0587 45.9996 19.9999C45.9996 29.9414 37.9411 38 28 38C18.0589 38 10 29.9414 10 19.9999C10 10.0587 18.0589 1.99972 28 1.99972Z" fill="url(#paint0_linear_0_3019)"/>
  </g>
  <path fill-rule="evenodd" clip-rule="evenodd" d="M29.0001 15C29.0001 14.4479 28.5523 14.0002 28 14.0002C27.4476 14.0002 27.0001 14.4479 27.0001 15V19H23C22.4477 19 21.9996 19.4477 21.9996 19.9998C21.9996 20.5523 22.4477 21 23 21H27.0001V25.0001C27.0001 25.5522 27.4476 25.9999 28 25.9999C28.5523 25.9999 29.0001 25.5522 29.0001 25.0001V21H32.9997C33.5523 21 34 20.5523 34 19.9998C34 19.4477 33.5523 19 32.9997 19H29.0001V15Z" fill="#FAFAFA" fill-opacity="0.75"/>
  <defs>
    <filter id="filter0_d_0_3019" x="0" y="1.99976" width="55.9996" height="56.0002" filterUnits="userSpaceOnUse" color-interpolation-filters="sRGB">
      <feFlood flood-opacity="0" result="BackgroundImageFix"/>
      <feColorMatrix in="SourceAlpha" type="matrix" values="0 0 0 0 0 0 0 0 0 0 0 0 0 0 0 0 0 0 127 0" result="hardAlpha"/>
      <feOffset dy="10"/>
      <feGaussianBlur stdDeviation="5"/>
      <feColorMatrix type="matrix" values="0 0 0 0 0 0 0 0 0 0 0 0 0 0 0 0 0 0 0.1 0"/>
      <feBlend mode="normal" in2="BackgroundImageFix" result="effect1_dropShadow_0_3019"/>
      <feBlend mode="normal" in="SourceGraphic" in2="effect1_dropShadow_0_3019" result="shape"/>
    </filter>
    <linearGradient id="paint0_linear_0_3019" x1="28" y1="-19.5" x2="-10.9868" y2="18.4872" gradientUnits="userSpaceOnUse">
      <stop stop-color="#FA4A6F"/>
      <stop offset="0.309052" stop-color="#EF5395"/>
      <stop offset="0.75849" stop-color="#DE4DCB"/>
      <stop offset="1" stop-color="#CE4CE6"/>
    </linearGradient>
  </defs>
</svg>