<svg xmlns="http://www.w3.org/2000/svg" width="18" height="19" viewBox="0 0 18 19" fill="none">
  <path fill-rule="evenodd" clip-rule="evenodd" d="M10.672 -2.02656e-06C14.7194 -2.02656e-06 18 3.21094 18 7.17206C18 11.1328 14.7194 14.3437 10.672 14.3437C9.12729 14.3437 7.69418 13.876 6.51251 13.0774L1.48232 18.0051L0.000560045 16.5541L4.97392 11.6823C3.95433 10.4502 3.34354 8.88094 3.34354 7.17206C3.34354 3.21094 6.62462 -2.02656e-06 10.672 -2.02656e-06ZM10.6874 2.06241C13.5868 2.06241 15.9376 4.35716 15.9376 7.18746C15.9376 10.0178 13.5868 12.3125 10.6874 12.3125C7.7881 12.3125 5.4375 10.0178 5.4375 7.18746C5.4375 4.35716 7.7881 2.06241 10.6874 2.06241Z" fill="#AAAAAA"/>
</svg>