<svg width="89" height="9" viewBox="0 0 89 9" fill="none" xmlns="http://www.w3.org/2000/svg">
<path fill-rule="evenodd" clip-rule="evenodd" d="M85.5 1.99972C86.8808 1.99972 87.9999 3.11897 87.9999 4.49983C87.9999 5.88107 86.8808 6.99994 85.5 6.99994C84.1194 6.99994 82.9999 5.88107 82.9999 4.49983C82.9999 3.11897 84.1194 1.99972 85.5 1.99972Z" fill="#222222" fill-opacity="0.25"/>
<path fill-rule="evenodd" clip-rule="evenodd" d="M65.5001 1.99972C66.8807 1.99972 68 3.11897 68 4.49983C68 5.88107 66.8807 6.99994 65.5001 6.99994C64.1191 6.99994 63 5.88107 63 4.49983C63 3.11897 64.1191 1.99972 65.5001 1.99972Z" fill="#222222" fill-opacity="0.25"/>
<path fill-rule="evenodd" clip-rule="evenodd" d="M45.5 1.99972C46.8808 1.99972 47.9999 3.11897 47.9999 4.49983C47.9999 5.88107 46.8808 6.99994 45.5 6.99994C44.1195 6.99994 42.9999 5.88107 42.9999 4.49983C42.9999 3.11897 44.1195 1.99972 45.5 1.99972Z" fill="#222222" fill-opacity="0.25"/>
<path fill-rule="evenodd" clip-rule="evenodd" d="M24.5001 1.00029C26.4332 1.00029 27.9997 2.56724 27.9997 4.49983C27.9997 6.4328 26.4332 7.99975 24.5001 7.99975C22.5669 7.99975 20.9998 6.4328 20.9998 4.49983C20.9998 2.56724 22.5669 1.00029 24.5001 1.00029Z" fill="#222222" fill-opacity="0.75"/>
<path fill-rule="evenodd" clip-rule="evenodd" d="M3.50009 1.99972C4.88064 1.99972 6.0002 3.11897 6.0002 4.49983C6.0002 5.88107 4.88064 6.99994 3.50009 6.99994C2.11927 6.99994 1.00023 5.88107 1.00023 4.49983C1.00023 3.11897 2.11927 1.99972 3.50009 1.99972Z" fill="#222222" fill-opacity="0.25"/>
</svg>
